<?xml version="1.0" encoding="UTF-8"?>
<svg xmlns="http://www.w3.org/2000/svg" viewBox="0 0 512 512" width="512" height="512">
  <rect width="512" height="512" rx="96" fill="#0b0f14"/>
  <g transform="translate(67 2.5) scale(1.5) translate(-124 -82)">
    <path d="M263.00,342.00 L235.00,343.00 L229.00,352.00 L248.00,417.00 L253.00,414.00 L268.00,361.00 L269.00,352.00 Z" fill="#eaffff" fill-rule="evenodd"/>
    <path d="M175.00,308.00 L181.00,316.00 L196.00,324.00 L236.00,332.00 L264.00,332.00 L297.00,326.00 L318.00,316.00 L324.00,307.00 L320.00,298.00 L303.00,289.00 L276.00,284.00 L275.00,287.00 L296.00,295.00 L300.00,299.00 L300.00,305.00 L289.00,311.00 L273.00,315.00 L227.00,315.00 L200.00,306.00 L199.00,299.00 L208.00,292.00 L224.00,288.00 L224.00,284.00 L189.00,292.00 L177.00,300.00 Z" fill="#eaffff" fill-rule="evenodd"/>
    <path d="M248.00,244.00 L242.00,248.00 L242.00,255.00 L246.00,259.00 L246.00,270.00 L236.00,279.00 L236.00,304.00 L262.00,305.00 L263.00,279.00 L253.00,270.00 L253.00,260.00 L257.00,256.00 L257.00,248.00 Z" fill="#eaffff" fill-rule="evenodd"/>
    <path d="M277.00,139.00 L281.00,159.00 L312.00,175.00 L332.00,195.00 L347.00,221.00 L353.00,248.00 L352.00,277.00 L341.00,307.00 L331.00,322.00 L314.00,339.00 L303.00,347.00 L281.00,356.00 L276.00,376.00 L282.00,376.00 L318.00,360.00 L331.00,350.00 L350.00,329.00 L367.00,296.00 L371.00,280.00 L373.00,253.00 L371.00,236.00 L358.00,199.00 L342.00,177.00 L329.00,164.00 L310.00,151.00 L288.00,141.00 Z" fill="#eaffff" fill-rule="evenodd"/>
    <path d="M217.00,139.00 L201.00,145.00 L175.00,160.00 L151.00,184.00 L138.00,205.00 L130.00,227.00 L126.00,266.00 L130.00,290.00 L138.00,311.00 L156.00,338.00 L186.00,363.00 L207.00,373.00 L222.00,376.00 L218.00,356.00 L189.00,342.00 L164.00,317.00 L152.00,295.00 L145.00,264.00 L149.00,230.00 L160.00,205.00 L173.00,188.00 L187.00,175.00 L199.00,167.00 L217.00,160.00 L222.00,139.00 Z" fill="#eaffff" fill-rule="evenodd"/>
    <path d="M246.00,84.00 L216.00,217.00 L222.00,226.00 L222.00,231.00 L211.00,233.00 L208.00,249.00 L231.00,267.00 L237.00,263.00 L236.00,247.00 L240.00,242.00 L246.00,104.00 L247.00,96.00 L252.00,95.00 L258.00,240.00 L263.00,248.00 L261.00,262.00 L268.00,267.00 L287.00,253.00 L291.00,246.00 L287.00,231.00 L277.00,231.00 L277.00,226.00 L282.00,220.00 L279.00,199.00 L253.00,84.00 Z" fill="#eaffff" fill-rule="evenodd"/>
  </g>
</svg>
